<svg width="22" height="22" viewBox="0 0 22 22" fill="none" xmlns="http://www.w3.org/2000/svg">
<path d="M13.75 11V16.5" stroke="black" stroke-width="1.5" stroke-linecap="round" stroke-linejoin="round"/>
<path d="M11 13.75H16.5" stroke="black" stroke-width="1.5" stroke-linecap="round" stroke-linejoin="round"/>
<path d="M18.3333 7.33325H9.16667C8.15415 7.33325 7.33334 8.15406 7.33334 9.16659V18.3333C7.33334 19.3458 8.15415 20.1666 9.16667 20.1666H18.3333C19.3459 20.1666 20.1667 19.3458 20.1667 18.3333V9.16659C20.1667 8.15406 19.3459 7.33325 18.3333 7.33325Z" stroke="black" stroke-width="1.5" stroke-linecap="round" stroke-linejoin="round"/>
<path d="M3.66667 14.6666C2.65834 14.6666 1.83334 13.8416 1.83334 12.8333V3.66659C1.83334 2.65825 2.65834 1.83325 3.66667 1.83325H12.8333C13.8417 1.83325 14.6667 2.65825 14.6667 3.66659" stroke="black" stroke-width="1.5" stroke-linecap="round" stroke-linejoin="round"/>
</svg>
