<svg width="32" height="32" viewBox="0 0 32 32" fill="none" xmlns="http://www.w3.org/2000/svg">
<path d="M13.3334 12V20" stroke="#F2F2F2" stroke-width="2" stroke-linecap="round" stroke-linejoin="round"/>
<path d="M16.7239 8H21.3333C22.0405 8 22.7188 8.28095 23.2189 8.78105C23.719 9.28115 23.9999 9.95942 23.9999 10.6667V21.3333C23.9999 22.0406 23.719 22.7189 23.2189 23.219C22.7188 23.719 22.0405 24 21.3333 24H16.5266" stroke="#F2F2F2" stroke-width="2" stroke-linecap="round" stroke-linejoin="round"/>
<path d="M29.3334 18.6666V13.3333" stroke="#F2F2F2" stroke-width="2" stroke-linecap="round" stroke-linejoin="round"/>
<path d="M9.33337 16H17.3334" stroke="#F2F2F2" stroke-width="2" stroke-linecap="round" stroke-linejoin="round"/>
<path d="M10.1413 24H5.33329C4.62605 24 3.94777 23.719 3.44767 23.219C2.94758 22.7189 2.66663 22.0406 2.66663 21.3333V10.6667C2.66663 9.95942 2.94758 9.28115 3.44767 8.78105C3.94777 8.28095 4.62605 8 5.33329 8H10.1413" stroke="#F2F2F2" stroke-width="2" stroke-linecap="round" stroke-linejoin="round"/>
</svg>
