<svg width="32" height="32" viewBox="0 0 32 32" fill="none" xmlns="http://www.w3.org/2000/svg">
<path d="M10.6666 18.6667C15.0849 18.6667 18.6666 15.085 18.6666 10.6667C18.6666 6.24847 15.0849 2.66675 10.6666 2.66675C6.24835 2.66675 2.66663 6.24847 2.66663 10.6667C2.66663 15.085 6.24835 18.6667 10.6666 18.6667Z" stroke="#F2F2F2" stroke-width="1.5" stroke-linecap="round" stroke-linejoin="round"/>
<path d="M24.12 13.8267C25.3804 14.2966 26.5019 15.0767 27.381 16.0949C28.26 17.1131 28.868 18.3366 29.1489 19.6521C29.4298 20.9676 29.3745 22.3327 28.988 23.6211C28.6015 24.9096 27.8964 26.0798 26.9379 27.0235C25.9793 27.9672 24.7982 28.654 23.5039 29.0203C22.2096 29.3866 20.8438 29.4207 19.5329 29.1193C18.2219 28.8179 17.0081 28.1908 16.0037 27.296C14.9993 26.4012 14.2368 25.2676 13.7866 24" stroke="#F2F2F2" stroke-width="1.5" stroke-linecap="round" stroke-linejoin="round"/>
<path d="M9.33337 8H10.6667V13.3333" stroke="#F2F2F2" stroke-width="1.5" stroke-linecap="round" stroke-linejoin="round"/>
<path d="M22.28 18.5066L23.2134 19.4533L19.4534 23.2133" stroke="#F2F2F2" stroke-width="1.5" stroke-linecap="round" stroke-linejoin="round"/>
</svg>
