<svg width="20" height="20" viewBox="0 0 20 20" fill="none" xmlns="http://www.w3.org/2000/svg">
<path d="M10.0001 18.3334C7.78994 18.3334 5.67033 17.4554 4.10752 15.8926C2.54472 14.3298 1.66675 12.2102 1.66675 10.0001C1.66675 7.78994 2.54472 5.67033 4.10752 4.10752C5.67033 2.54472 7.78994 1.66675 10.0001 1.66675C12.2102 1.66675 14.3298 2.45692 15.8926 3.86345C17.4554 5.26997 18.3334 7.17762 18.3334 9.16675C18.3334 10.2718 17.8944 11.3316 17.113 12.113C16.3316 12.8944 15.2718 13.3334 14.1667 13.3334H12.2917C12.0209 13.3334 11.7554 13.4088 11.5251 13.5512C11.2947 13.6936 11.1085 13.8973 10.9874 14.1396C10.8663 14.3818 10.815 14.653 10.8393 14.9227C10.8636 15.1924 10.9626 15.4501 11.1251 15.6667L11.3751 16.0001C11.5376 16.2167 11.6365 16.4744 11.6609 16.7441C11.6852 17.0139 11.6339 17.285 11.5128 17.5273C11.3917 17.7695 11.2055 17.9732 10.9751 18.1156C10.7447 18.258 10.4792 18.3334 10.2084 18.3334H10.0001Z" stroke="white" stroke-width="1.5" stroke-linecap="round" stroke-linejoin="round"/>
<path d="M11.2499 5.83333C11.48 5.83333 11.6666 5.64679 11.6666 5.41667C11.6666 5.18655 11.48 5 11.2499 5C11.0198 5 10.8333 5.18655 10.8333 5.41667C10.8333 5.64679 11.0198 5.83333 11.2499 5.83333Z" fill="white" stroke="white" stroke-width="1.5" stroke-linecap="round" stroke-linejoin="round"/>
<path d="M14.5834 9.16659C14.8135 9.16659 15.0001 8.98004 15.0001 8.74992C15.0001 8.5198 14.8135 8.33325 14.5834 8.33325C14.3533 8.33325 14.1667 8.5198 14.1667 8.74992C14.1667 8.98004 14.3533 9.16659 14.5834 9.16659Z" fill="white" stroke="white" stroke-width="1.5" stroke-linecap="round" stroke-linejoin="round"/>
<path d="M5.41667 10.8333C5.64679 10.8333 5.83333 10.6468 5.83333 10.4167C5.83333 10.1865 5.64679 10 5.41667 10C5.18655 10 5 10.1865 5 10.4167C5 10.6468 5.18655 10.8333 5.41667 10.8333Z" fill="white" stroke="white" stroke-width="1.5" stroke-linecap="round" stroke-linejoin="round"/>
<path d="M7.08341 6.66659C7.31353 6.66659 7.50008 6.48004 7.50008 6.24992C7.50008 6.0198 7.31353 5.83325 7.08341 5.83325C6.8533 5.83325 6.66675 6.0198 6.66675 6.24992C6.66675 6.48004 6.8533 6.66659 7.08341 6.66659Z" fill="white" stroke="white" stroke-width="1.5" stroke-linecap="round" stroke-linejoin="round"/>
</svg>
