<svg width="32" height="32" viewBox="0 0 32 32" fill="none" xmlns="http://www.w3.org/2000/svg">
<path d="M18.6667 12.7147V9.33333C18.6667 7.91885 19.2286 6.56229 20.2288 5.5621C21.229 4.5619 22.5855 4 24 4H26C26.1768 4 26.3464 4.07024 26.4714 4.19526C26.5964 4.32029 26.6667 4.48986 26.6667 4.66667V6.66667C26.6667 8.08115 26.1048 9.43771 25.1046 10.4379C24.1044 11.4381 22.7478 12 21.3333 12C19.9188 12 18.5623 12.5619 17.5621 13.5621C16.5619 14.5623 16 15.9188 16 17.3333C16 20 17.3333 21.3333 17.3333 24C17.3333 25.4425 16.8655 26.846 16 28" stroke="#F2F2F2" stroke-width="2" stroke-linecap="round" stroke-linejoin="round"/>
<path d="M5.33337 12.0001C6.32384 11.2572 7.50159 10.8049 8.73467 10.6937C9.96775 10.5825 11.2074 10.8169 12.3148 11.3706C13.4222 11.9243 14.3535 12.7754 15.0044 13.8285C15.6553 14.8817 16 16.0953 16 17.3334C15.0096 18.0763 13.8318 18.5286 12.5987 18.6398C11.3657 18.751 10.126 18.5166 9.01862 17.9629C7.91125 17.4092 6.97993 16.5581 6.32904 15.505C5.67814 14.4518 5.33337 13.2382 5.33337 12.0001Z" stroke="#F2F2F2" stroke-width="2" stroke-linecap="round" stroke-linejoin="round"/>
<path d="M6.66663 28H25.3333" stroke="#F2F2F2" stroke-width="2" stroke-linecap="round" stroke-linejoin="round"/>
</svg>
