<svg width="23" height="22" viewBox="0 0 23 22" fill="none" xmlns="http://www.w3.org/2000/svg">
<path d="M14.4333 2.75C14.9169 2.75689 15.3782 2.95457 15.7167 3.3L19.2 6.78333C19.5454 7.12182 19.7431 7.58309 19.75 8.06667V17.4167C19.75 17.9029 19.5568 18.3692 19.213 18.713C18.8692 19.0568 18.4029 19.25 17.9167 19.25H5.08333C4.5971 19.25 4.13079 19.0568 3.78697 18.713C3.44315 18.3692 3.25 17.9029 3.25 17.4167V4.58333C3.25 4.0971 3.44315 3.63079 3.78697 3.28697C4.13079 2.94315 4.5971 2.75 5.08333 2.75H14.4333Z" stroke="white" stroke-width="1.5" stroke-linecap="round" stroke-linejoin="round"/>
<path d="M16.0833 19.2501V12.8334C16.0833 12.5903 15.9868 12.3571 15.8149 12.1852C15.6429 12.0133 15.4098 11.9167 15.1667 11.9167H7.83334C7.59022 11.9167 7.35707 12.0133 7.18516 12.1852C7.01325 12.3571 6.91667 12.5903 6.91667 12.8334V19.2501" stroke="white" stroke-width="1.5" stroke-linecap="round" stroke-linejoin="round"/>
<path d="M6.91667 2.75V6.41667C6.91667 6.65978 7.01325 6.89294 7.18516 7.06485C7.35707 7.23676 7.59022 7.33333 7.83334 7.33333H14.25" stroke="white" stroke-width="1.5" stroke-linecap="round" stroke-linejoin="round"/>
</svg>
