<svg width="32" height="32" viewBox="0 0 32 32" fill="none" xmlns="http://www.w3.org/2000/svg">
<path d="M16 24.0001V6.66675" stroke="#F2F2F2" stroke-width="2" stroke-linecap="round" stroke-linejoin="round"/>
<path d="M20 17.3333C18.8464 16.9961 17.8331 16.2942 17.112 15.3327C16.3909 14.3712 16.0007 13.2019 16 12C15.9993 13.2019 15.6091 14.3712 14.888 15.3327C14.1669 16.2942 13.1536 16.9961 12 17.3333" stroke="#F2F2F2" stroke-width="2" stroke-linecap="round" stroke-linejoin="round"/>
<path d="M23.464 8.66668C23.7708 8.13533 23.9513 7.54052 23.9914 6.92827C24.0316 6.31602 23.9303 5.70274 23.6956 5.13587C23.4608 4.569 23.0987 4.06374 22.6374 3.65919C22.1761 3.25463 21.6279 2.96161 21.0353 2.8028C20.4426 2.644 19.8214 2.62366 19.2196 2.74337C18.6178 2.86308 18.0517 3.11961 17.5649 3.49314C17.0781 3.86667 16.6838 4.34716 16.4125 4.89746C16.1411 5.44776 16 6.05311 16 6.66668C16 6.05311 15.8589 5.44776 15.5875 4.89746C15.3162 4.34716 14.9219 3.86667 14.4351 3.49314C13.9483 3.11961 13.3822 2.86308 12.7804 2.74337C12.1786 2.62366 11.5574 2.644 10.9647 2.8028C10.3721 2.96161 9.82387 3.25463 9.36257 3.65919C8.90127 4.06374 8.53923 4.569 8.30444 5.13587C8.06965 5.70274 7.96842 6.31602 8.00858 6.92827C8.04873 7.54052 8.22919 8.13533 8.536 8.66668" stroke="#F2F2F2" stroke-width="2" stroke-linecap="round" stroke-linejoin="round"/>
<path d="M23.996 6.83325C24.7797 7.03477 25.5073 7.41199 26.1237 7.93633C26.74 8.46068 27.229 9.11842 27.5535 9.85972C27.878 10.601 28.0296 11.4064 27.9968 12.215C27.9639 13.0236 27.7475 13.814 27.364 14.5266" stroke="#F2F2F2" stroke-width="2" stroke-linecap="round" stroke-linejoin="round"/>
<path d="M24 24.0001C25.174 24 26.3152 23.6126 27.2466 22.8979C28.178 22.1832 28.8475 21.1812 29.1514 20.0471C29.4552 18.9131 29.3764 17.7106 28.9272 16.6259C28.4779 15.5413 27.6834 14.6352 26.6667 14.0481" stroke="#F2F2F2" stroke-width="2" stroke-linecap="round" stroke-linejoin="round"/>
<path d="M26.6227 23.3105C26.7161 24.0335 26.6604 24.768 26.4589 25.4686C26.2573 26.1692 25.9143 26.821 25.451 27.3838C24.9877 27.9466 24.4139 28.4085 23.7651 28.7409C23.1163 29.0733 22.4062 29.2691 21.6787 29.3163C20.9513 29.3635 20.2218 29.2611 19.5355 29.0154C18.8492 28.7696 18.2205 28.3858 17.6884 27.8876C17.1562 27.3893 16.7318 26.7873 16.4414 26.1186C16.151 25.45 16.0008 24.7289 16 23.9999C15.9993 24.7289 15.849 25.45 15.5587 26.1186C15.2683 26.7873 14.8439 27.3893 14.3117 27.8876C13.7795 28.3858 13.1509 28.7696 12.4646 29.0154C11.7782 29.2611 11.0488 29.3635 10.3213 29.3163C9.59387 29.2691 8.88381 29.0733 8.235 28.7409C7.58619 28.4085 7.0124 27.9466 6.54908 27.3838C6.08577 26.821 5.74275 26.1692 5.54122 25.4686C5.33969 24.768 5.28393 24.0335 5.37737 23.3105" stroke="#F2F2F2" stroke-width="2" stroke-linecap="round" stroke-linejoin="round"/>
<path d="M7.99997 24.0001C6.82596 24 5.68478 23.6126 4.75339 22.8979C3.822 22.1832 3.15246 21.1812 2.84861 20.0471C2.54475 18.9131 2.62355 17.7106 3.07279 16.6259C3.52204 15.5413 4.31661 14.6352 5.3333 14.0481" stroke="#F2F2F2" stroke-width="2" stroke-linecap="round" stroke-linejoin="round"/>
<path d="M8.00399 6.83325C7.22026 7.03477 6.49266 7.41199 5.8763 7.93633C5.25993 8.46068 4.77097 9.11842 4.44645 9.85972C4.12192 10.601 3.97033 11.4064 4.00317 12.215C4.03601 13.0236 4.25241 13.814 4.63599 14.5266" stroke="#F2F2F2" stroke-width="2" stroke-linecap="round" stroke-linejoin="round"/>
</svg>
