<svg width="32" height="28" viewBox="0 0 32 28" fill="none" xmlns="http://www.w3.org/2000/svg">
<g clip-path="url(#clip0_610_617)">
<path d="M6.39936 28C4.60064 27.8144 3 26.9745 1.84984 25.7256C0.699681 24.4768 0 22.819 0 21.0008C0 19.1826 0.699681 17.5248 1.84984 16.2759C3 15.0271 4.60064 14.1872 6.39936 14.0016V0C8.19808 0.185597 9.79872 1.0255 10.9489 2.27435C12.099 3.5232 12.7987 5.18099 12.7987 6.99921C12.7987 8.81744 12.099 10.4752 10.9489 11.7241C9.79872 12.9729 8.19808 13.8128 6.39936 13.9984V27.9969V28Z" fill="#F2F2F2"/>
<path d="M15.9999 28C14.2012 27.8144 12.6006 26.9745 11.4504 25.7256C10.3003 24.4768 9.60059 22.819 9.60059 21.0008C9.60059 19.1826 10.3003 17.5248 11.4504 16.2759C12.6006 15.0271 14.2012 14.1872 15.9999 14.0016V0C17.7987 0.185597 19.3993 1.0255 20.5495 2.27435C21.6996 3.5232 22.3993 5.18099 22.3993 6.99921C22.3993 8.81744 21.6996 10.4752 20.5495 11.7241C19.3993 12.9729 17.7987 13.8128 15.9999 13.9984V27.9969V28Z" fill="#F2F2F2"/>
<path d="M25.5975 13.9984V27.9969C23.7988 27.8113 22.1981 26.9714 21.048 25.7225C19.8978 24.4737 19.1981 22.8159 19.1981 20.9976C19.1981 19.1794 19.8978 17.5216 21.048 16.2728C22.1981 15.0239 23.7988 14.184 25.5975 13.9984V0C27.3962 0.185597 28.9968 1.0255 30.147 2.27435C31.2972 3.5232 31.9968 5.18099 31.9968 6.99921C31.9968 8.81744 31.2972 10.4752 30.147 11.7241C28.9968 12.9729 27.3962 13.8128 25.5975 13.9984Z" fill="#F2F2F2"/>
</g>
<defs>
<clipPath id="clip0_610_617">
<rect width="32" height="28" fill="white"/>
</clipPath>
</defs>
</svg>
